<svg xmlns="http://www.w3.org/2000/svg" width="17.038" height="22.123" viewBox="0 0 17.038 22.123">
  <path id="book_5" d="M2.929,22.123a2.914,2.914,0,0,1-2.064-.812A2.647,2.647,0,0,1,0,19.3V4.446A2.859,2.859,0,0,1,.626,2.635,2.729,2.729,0,0,1,2.263,1.624L10.249.053a1.971,1.971,0,0,1,1.757.426,2.045,2.045,0,0,1,.772,1.651v12.7A2.135,2.135,0,0,1,12.3,16.2a1.963,1.963,0,0,1-1.225.732L2.689,18.609a.73.73,0,0,0-.559.692.617.617,0,0,0,.24.492.844.844,0,0,0,.559.2h11.98V4.02a1.065,1.065,0,1,1,2.13,0V19.993a2.136,2.136,0,0,1-2.13,2.13Z" fill="#b9b9b9"/>
</svg>
