<svg xmlns="http://www.w3.org/2000/svg" width="19.77" height="23.5" viewBox="0 0 19.77 23.5">
  <g id="write" transform="translate(-7.875 0.025)">
    <path id="Path_156" data-name="Path 156" d="M10.253,19.763a1.67,1.67,0,0,0,.493-.07l4.229-.846a2.72,2.72,0,0,0,1.245-.681L26.464,7.922a4.214,4.214,0,0,0,0-5.85L25.6,1.156a4.243,4.243,0,0,0-5.874,0L9.478,11.423A2.822,2.822,0,0,0,8.8,12.668L7.9,16.944a2.392,2.392,0,0,0,2.349,2.819Zm.8-6.649L21.3,2.847a1.889,1.889,0,0,1,2.584,0l.893.893a1.823,1.823,0,0,1,0,2.7L14.553,16.709l-4.346.728Z" transform="translate(0 0)" fill="#fff"/>
    <path id="Path_157" data-name="Path 157" d="M26.466,90.4H9.128A1.061,1.061,0,0,0,8,91.528a1.127,1.127,0,0,0,1.128,1.128H26.372a1.131,1.131,0,1,0,.094-2.255Z" transform="translate(-0.096 -69.18)" fill="#fff"/>
  </g>
</svg>
