<svg xmlns="http://www.w3.org/2000/svg" width="16.263" height="17.788" viewBox="0 0 16.263 17.788">
  <path id="home" d="M0,15.755V6.607a2.019,2.019,0,0,1,.216-.915,1.949,1.949,0,0,1,.6-.712L6.912.407a2.033,2.033,0,0,1,2.439,0l6.1,4.574a1.949,1.949,0,0,1,.6.712,2.019,2.019,0,0,1,.216.915v9.148a2.039,2.039,0,0,1-2.033,2.033H11.181a1,1,0,0,1-1.016-1.016V11.689a1,1,0,0,0-1.016-1.016H7.115A1,1,0,0,0,6.1,11.689v5.082a1,1,0,0,1-1.016,1.016H2.033a1.958,1.958,0,0,1-1.436-.6A1.958,1.958,0,0,1,0,15.755Z" fill="#1c1c1c"/>
</svg>
