<svg xmlns="http://www.w3.org/2000/svg" width="23.5" height="23.5" viewBox="0 0 23.5 23.5">
  <g id="logout_1_" data-name="logout (1)" transform="translate(-3.25 -3.25)">
    <path id="Path_154" data-name="Path 154" d="M15,3.25a1.007,1.007,0,0,1,0,2.014,9.736,9.736,0,0,0,0,19.471,1.007,1.007,0,1,1,0,2.014,11.75,11.75,0,1,1,0-23.5Z" transform="translate(0 0)" fill="#fff"/>
    <path id="Path_155" data-name="Path 155" d="M18.945,9.969a1.007,1.007,0,0,1,1.424-1.424L24.4,12.574A1.007,1.007,0,0,1,24.4,14l-4.029,4.029A1.007,1.007,0,0,1,18.945,16.6l2.309-2.309h-11a1.007,1.007,0,1,1,0-2.014h11Z" transform="translate(2.057 1.714)" fill="#fff"/>
  </g>
</svg>
