<svg xmlns="http://www.w3.org/2000/svg" width="123.159" height="127.24" viewBox="0 0 123.159 127.24">
  <g id="one-time-password" transform="translate(-8.21 0)">
    <path id="Path_82" data-name="Path 82" d="M371.629,247.785a16.819,16.819,0,1,1-16.817-16.815,16.82,16.82,0,0,1,16.817,16.815Z" transform="translate(-247.825 -173.57)" fill="#f89c1c" fill-rule="evenodd"/>
    <path id="Path_83" data-name="Path 83" d="M91.616,40.894a1.74,1.74,0,0,0,1.74-1.74V20.071h73.172V46.516a1.74,1.74,0,1,0,3.479,0V12.956A12.973,12.973,0,0,0,157.046,0H102.838A12.973,12.973,0,0,0,89.876,12.956v26.2a1.74,1.74,0,0,0,1.74,1.74ZM102.838,3.481h54.208a9.489,9.489,0,0,1,9.482,9.475v3.635H93.356V12.956a9.489,9.489,0,0,1,9.482-9.475Zm65.43,96.7a1.74,1.74,0,0,0-1.74,1.74v5.255H93.356V65.156a1.74,1.74,0,1,0-3.479,0v49.128a12.973,12.973,0,0,0,12.961,12.956h54.208a12.973,12.973,0,0,0,12.962-12.955V101.921a1.74,1.74,0,0,0-1.74-1.74Zm-11.222,23.578H102.838a9.489,9.489,0,0,1-9.482-9.475v-3.628h73.171v3.628A9.489,9.489,0,0,1,157.046,123.759Zm-20.1-6.551a1.74,1.74,0,0,1-1.74,1.74H124.683a1.74,1.74,0,0,1,0-3.479H135.2a1.74,1.74,0,0,1,1.74,1.74Zm-14-107.176a1.74,1.74,0,0,1,1.74-1.74H135.2a1.74,1.74,0,0,1,0,3.479H124.683a1.74,1.74,0,0,1-1.74-1.74Zm45.325,39.71A24.476,24.476,0,1,0,192.74,74.216a24.477,24.477,0,0,0-24.473-24.474Zm0,45.472a21,21,0,1,1,20.993-21,21,21,0,0,1-20.993,21Z" transform="translate(-61.371)" fill="#63799f"/>
    <path id="Path_84" data-name="Path 84" d="M14.909,157.552H71.491a6.72,6.72,0,0,1,6.7,6.7v12.6a6.719,6.719,0,0,1-6.7,6.7H61.784v8.756l-11.926-8.756H14.909a6.719,6.719,0,0,1-6.7-6.7v-12.6a6.72,6.72,0,0,1,6.7-6.7Z" transform="translate(0 -118.398)" fill="#f89c1c" fill-rule="evenodd"/>
    <path id="Path_85" data-name="Path 85" d="M90.313,194.362a1.74,1.74,0,0,1-1.74-1.74v-2.908l-2.517,1.455a1.74,1.74,0,1,1-1.742-3.013l2.518-1.456-2.518-1.456a1.74,1.74,0,0,1,1.742-3.013l2.517,1.455V180.78a1.74,1.74,0,0,1,3.479,0v2.9l2.51-1.451a1.74,1.74,0,1,1,1.742,3.013L93.785,186.7l2.519,1.456a1.74,1.74,0,1,1-1.742,3.013l-2.51-1.451v2.9a1.74,1.74,0,0,1-1.74,1.74Zm-18.738,0a1.74,1.74,0,0,1-1.74-1.74v-2.908l-2.518,1.455a1.74,1.74,0,1,1-1.742-3.013l2.518-1.457-2.518-1.456a1.74,1.74,0,0,1,1.742-3.013l2.518,1.455V180.78a1.74,1.74,0,0,1,3.479,0v2.9l2.51-1.451a1.74,1.74,0,1,1,1.742,3.013L75.047,186.7l2.518,1.456a1.74,1.74,0,0,1-1.742,3.013l-2.51-1.451v2.9a1.74,1.74,0,0,1-1.739,1.74Zm-18.738,0a1.74,1.74,0,0,1-1.74-1.74v-2.908l-2.517,1.455a1.74,1.74,0,1,1-1.742-3.013l2.517-1.457-2.518-1.456a1.74,1.74,0,1,1,1.742-3.013l2.516,1.455V180.78a1.74,1.74,0,0,1,3.479,0v2.9l2.51-1.451a1.74,1.74,0,1,1,1.742,3.013L56.307,186.7l2.519,1.456a1.74,1.74,0,1,1-1.742,3.013l-2.51-1.451v2.9a1.74,1.74,0,0,1-1.738,1.74Z" transform="translate(-28.374 -134.546)" fill="#fff"/>
    <path id="Path_86" data-name="Path 86" d="M106.985,65.268v8.088l6.653,4.422" transform="translate(-1.194 1.989)" fill="none" stroke="#fff" stroke-linecap="round" stroke-linejoin="round" stroke-width="4"/>
  </g>
</svg>
