<svg xmlns="http://www.w3.org/2000/svg" width="16.864" height="17.318" viewBox="0 0 16.864 17.318">
  <g id="settings" transform="translate(-6.71)">
    <g id="Group_38" data-name="Group 38" transform="translate(6.71)">
      <path id="Path_89" data-name="Path 89" d="M23.282,10.557,21.69,9.312a6.266,6.266,0,0,0,.038-.654A6.078,6.078,0,0,0,21.69,8l1.593-1.245a.781.781,0,0,0,.188-.994L21.817,2.9a.767.767,0,0,0-.958-.344l-1.878.754a6.44,6.44,0,0,0-1.128-.654L17.567.664A.766.766,0,0,0,16.8,0H13.483a.764.764,0,0,0-.763.658l-.286,2a6.639,6.639,0,0,0-1.126.654L9.424,2.556a.783.783,0,0,0-.95.338L6.817,5.762a.776.776,0,0,0,.188,1L8.6,8.006a5.71,5.71,0,0,0,0,1.307L7,10.558a.781.781,0,0,0-.188.994L8.47,14.416a.766.766,0,0,0,.958.344l1.878-.754a6.5,6.5,0,0,0,1.127.654l.286,1.992a.766.766,0,0,0,.765.665H16.8a.765.765,0,0,0,.764-.658l.286-2a6.67,6.67,0,0,0,1.126-.655l1.883.756a.775.775,0,0,0,.283.053.762.762,0,0,0,.667-.391l1.663-2.879A.779.779,0,0,0,23.282,10.557Zm-8.139.989a2.886,2.886,0,1,1,2.886-2.886A2.889,2.889,0,0,1,15.143,11.545Z" transform="translate(-6.71)" fill="#b9b9b9"/>
    </g>
  </g>
</svg>
