<svg xmlns="http://www.w3.org/2000/svg" width="18.255" height="20" viewBox="0 0 18.255 20">
  <path id="Path_70" data-name="Path 70" d="M15.213,14.171a3.028,3.028,0,0,0-2.028.8l-7.2-4.221a1.706,1.706,0,0,0,.1-.7,1.7,1.7,0,0,0-.1-.7l7.2-4.121a2.844,2.844,0,0,0,2.028.8,2.974,2.974,0,0,0,3.043-3.015,3.043,3.043,0,0,0-6.085,0,1.691,1.691,0,0,0,.1.7l-7.2,4.12a2.847,2.847,0,0,0-2.028-.8,3.015,3.015,0,1,0,0,6.03,2.842,2.842,0,0,0,2.028-.8l7.2,4.221a1.259,1.259,0,0,0-.1.6,2.941,2.941,0,0,0,5.882,0A2.844,2.844,0,0,0,15.213,14.171Zm0-12.161A1.005,1.005,0,1,1,14.2,3.015,1.012,1.012,0,0,1,15.213,2.01ZM3.043,11.055A.954.954,0,0,1,2.028,10.05.954.954,0,0,1,3.043,9.045.954.954,0,0,1,4.057,10.05.954.954,0,0,1,3.043,11.055Zm12.17,7.035a1.005,1.005,0,1,1,1.014-1.005A1.086,1.086,0,0,1,15.213,18.09Z" fill="#ff3a43"/>
</svg>
