<svg xmlns="http://www.w3.org/2000/svg" width="21.863" height="21.12" viewBox="0 0 21.863 21.12">
  <path id="like" d="M41.785,37.669A3.543,3.543,0,0,0,39.133,36.4H36.522a11.564,11.564,0,0,0,1.3-2.776,4.758,4.758,0,0,0-.042-3.452,2.934,2.934,0,0,0-2.818-1.553.743.743,0,0,0-.687.46,28.8,28.8,0,0,1-6.251,8.458,2.154,2.154,0,0,0-2.066-1.556H22.776a2.153,2.153,0,0,0-2.15,2.15v9.458a2.153,2.153,0,0,0,2.15,2.15h3.181a2.149,2.149,0,0,0,1.757-.913,3.2,3.2,0,0,0,2.227.913h8.01a2.931,2.931,0,0,0,2.281-1.09,4.945,4.945,0,0,0,1.027-2.3l1.181-6.29A2.874,2.874,0,0,0,41.785,37.669ZM26.622,47.591a.665.665,0,0,1-.664.664H22.776a.665.665,0,0,1-.664-.664V38.133a.665.665,0,0,1,.664-.664h3.181a.665.665,0,0,1,.664.664Zm14.358-7.8L39.8,46.079c-.2,1.052-.786,2.176-1.847,2.176h-8.01a1.947,1.947,0,0,1-1.834-2.039V39.447a31,31,0,0,0,7.323-9.3,1.228,1.228,0,0,1,1.016.687c.482.978.082,3.229-1.937,5.861a.743.743,0,0,0,.59,1.2h4.033a2.049,2.049,0,0,1,1.509.731,1.409,1.409,0,0,1,.338,1.171Z" transform="translate(-20.626 -28.621)" fill="#ff3a43"/>
</svg>
