<?xml version="1.0" encoding="UTF-8"?>
<svg version="1.1" xmlns="http://www.w3.org/2000/svg" width="50" height="50">
<path d="M0 0 C3.0625 0.4375 3.0625 0.4375 4.875 2.3125 C6.27634914 6.0002609 6.55994072 9.31001385 6.75390625 13.23046875 C6.86514681 15.64173155 6.86514681 15.64173155 9.0625 17.4375 C11.11621181 22.67540718 12.50948748 27.77565858 12.0625 33.4375 C11.0725 33.4375 10.0825 33.4375 9.0625 33.4375 C9.31 34.860625 9.31 34.860625 9.5625 36.3125 C10.12941504 40.98954906 10.0625 45.72621774 10.0625 50.4375 C-0.4975 50.4375 -11.0575 50.4375 -21.9375 50.4375 C-22.4325 43.0125 -22.4325 43.0125 -22.9375 35.4375 C-24.2575 35.4375 -25.5775 35.4375 -26.9375 35.4375 C-26.99540353 32.14590684 -27.03106261 28.85444397 -27.0625 25.5625 C-27.07925781 24.62535156 -27.09601562 23.68820313 -27.11328125 22.72265625 C-27.12294922 21.37880859 -27.12294922 21.37880859 -27.1328125 20.0078125 C-27.14328613 19.18039551 -27.15375977 18.35297852 -27.16455078 17.50048828 C-26.9375 15.4375 -26.9375 15.4375 -24.9375 13.4375 C-22.0281442 13.29232256 -19.217554 13.25119204 -16.3125 13.3125 C-15.51070312 13.32152344 -14.70890625 13.33054687 -13.8828125 13.33984375 C-11.90091477 13.36343777 -9.91917019 13.39930935 -7.9375 13.4375 C-7.6075 14.0975 -7.2775 14.7575 -6.9375 15.4375 C-6.81632812 14.52226562 -6.69515625 13.60703125 -6.5703125 12.6640625 C-6.40273438 11.47554687 -6.23515625 10.28703125 -6.0625 9.0625 C-5.90007813 7.87914062 -5.73765625 6.69578125 -5.5703125 5.4765625 C-4.73649717 1.4721901 -4.07060407 0.60626018 0 0 Z M-5.9375 16.4375 C-5.9375 16.7675 -5.9375 17.0975 -5.9375 17.4375 C-2.3075 17.4375 1.3225 17.4375 5.0625 17.4375 C5.0625 17.1075 5.0625 16.7775 5.0625 16.4375 C1.4325 16.4375 -2.1975 16.4375 -5.9375 16.4375 Z M-11.9375 19.4375 C-10.9375 21.4375 -10.9375 21.4375 -10.9375 21.4375 Z M-5.9375 22.4375 C-10.41209355 27.58328259 -11.46855949 30.68490229 -11.11328125 37.49609375 C-11.05527344 38.13675781 -10.99726563 38.77742188 -10.9375 39.4375 C-9.02144628 35.85922874 -7.97420029 32.26535468 -6.9140625 28.36328125 C-5.9375 26.4375 -5.9375 26.4375 -3.8359375 25.66796875 C-2.89621094 25.55388672 -2.89621094 25.55388672 -1.9375 25.4375 C-2.9275 25.4375 -3.9175 25.4375 -4.9375 25.4375 C-5.2675 24.4475 -5.5975 23.4575 -5.9375 22.4375 Z M4.0625 22.4375 C4.0625 23.4275 4.0625 24.4175 4.0625 25.4375 C3.0725 25.7675 2.0825 26.0975 1.0625 26.4375 C2.3825 26.4375 3.7025 26.4375 5.0625 26.4375 C5.3925 27.4275 5.7225 28.4175 6.0625 29.4375 C6.3925 28.7775 6.7225 28.1175 7.0625 27.4375 C6.16886395 24.82818734 6.16886395 24.82818734 5.0625 22.4375 C4.7325 22.4375 4.4025 22.4375 4.0625 22.4375 Z M7.0625 30.4375 C8.0625 32.4375 8.0625 32.4375 8.0625 32.4375 Z " fill="#000000" transform="translate(32.9375,-0.4375)"/>
<path d="M0 0 C3.5 0.25 3.5 0.25 5.5 2.25 C5.75 5.75 5.75 5.75 5.5 9.25 C3.5 11.25 3.5 11.25 0 11.5 C-3.5 11.25 -3.5 11.25 -5.5 9.25 C-5.75 5.75 -5.75 5.75 -5.5 2.25 C-3.5 0.25 -3.5 0.25 0 0 Z " fill="#000000" transform="translate(16.5,-0.25)"/>
</svg>
